<svg width="40" height="40" viewBox="0 0 40 40" fill="none" xmlns="http://www.w3.org/2000/svg">
<circle cx="32" cy="30" r="5" fill="white"/>
<path fill-rule="evenodd" clip-rule="evenodd" d="M16.7945 10.0108C15.7773 11.7734 15.1953 13.8187 15.1953 16V33.6C15.1953 34.9255 16.2698 36 17.5953 36L17.6213 35.9999H36.7694L36.7953 36C38.1208 36 39.1953 34.9255 39.1953 33.6V16C39.1953 9.37258 33.8227 4 27.1953 4C24.4942 4 22.0015 4.89244 19.9961 6.39853C17.9906 4.89244 15.498 4 12.7969 4C6.16946 4 0.796875 9.37258 0.796875 16V33.6C0.796875 34.9255 1.87139 36 3.19688 36C4.52236 36 5.59688 34.9255 5.59688 33.6V16C5.59688 12.0235 8.82043 8.8 12.7969 8.8C14.2759 8.8 15.6509 9.24599 16.7945 10.0108ZM34.363 15.3135L19.9953 31.3275V16C19.9953 12.0235 23.2189 8.8 27.1953 8.8C30.9402 8.8 34.0173 11.659 34.363 15.3135ZM31.9977 31.1999C33.3231 31.1999 34.3977 30.1254 34.3977 28.7999C34.3977 27.4744 33.3231 26.3999 31.9977 26.3999C30.6722 26.3999 29.5977 27.4744 29.5977 28.7999C29.5977 30.1254 30.6722 31.1999 31.9977 31.1999Z" fill="black"/>
</svg>
