<svg width="160" height="160" viewBox="0 0 160 160" fill="none" xmlns="http://www.w3.org/2000/svg">
<mask id="mask0_830_604" style="mask-type:alpha" maskUnits="userSpaceOnUse" x="0" y="0" width="160" height="160">
<rect width="160" height="160" fill="#D9D9D9"/>
</mask>
<g mask="url(#mask0_830_604)">
<path fill-rule="evenodd" clip-rule="evenodd" d="M51.6799 60.7883C54.5584 58.8579 58.3525 59.0006 61.0778 61.1417L85.4445 80.2843L136.05 66.7246C146.186 64.0087 156.604 70.0238 159.32 80.1597C162.036 90.2955 156.021 100.714 145.885 103.43L94.1274 117.298L84.4797 143.586C83.2856 146.839 80.1323 148.954 76.6689 148.824L29.5484 147.052C26.085 146.922 23.0994 144.576 22.153 141.242L20.871 136.726L52.4044 128.276C56.6721 127.133 59.2048 122.746 58.0612 118.478L52.3672 97.228C51.2237 92.9603 46.837 90.4276 42.5693 91.5711L10.4934 100.166L9.27699 95.8804C8.33061 92.5463 9.63872 88.982 12.5172 87.0517L51.6799 60.7883Z" fill="black"/>
<path d="M75.1048 113.596L27.0556 90.7537L12.6986 124.106L34.9335 133.677L75.1048 113.596Z" fill="black"/>
<path d="M8.06095 93.8896C8.32991 93.2276 8.93161 92.7594 9.63938 92.6613L25.6701 90.4404C26.3779 90.3424 27.0842 90.6293 27.523 91.1933L37.4618 103.966C37.9006 104.53 38.0052 105.285 37.7362 105.947L31.6442 120.94C31.3752 121.602 30.7736 122.071 30.0658 122.169L14.035 124.39C13.3272 124.488 12.6209 124.201 12.1821 123.637L2.24338 110.864C1.80458 110.3 1.69996 109.545 1.96892 108.883L8.06095 93.8896Z" fill="#17CBB9"/>
<path d="M16.317 104.499C16.586 103.837 17.1877 103.369 17.8955 103.271L20.6108 102.894C21.3185 102.796 22.0249 103.083 22.4637 103.647L24.1471 105.811C24.5859 106.375 24.6905 107.13 24.4216 107.792L23.3897 110.331C23.1207 110.993 22.519 111.462 21.8112 111.56L19.0959 111.936C18.3882 112.034 17.6818 111.747 17.243 111.183L15.5596 109.02C15.1208 108.456 15.0162 107.7 15.2851 107.038L16.317 104.499Z" fill="black"/>
<path fill-rule="evenodd" clip-rule="evenodd" d="M46.6626 54.8859C49.5411 52.9556 53.3351 53.0983 56.0605 55.2393L80.4272 74.3819L129.408 61.2575C139.544 58.5416 149.962 64.5567 152.678 74.6926C155.394 84.8284 149.379 95.2468 139.243 97.9627L89.11 111.396L79.4624 137.683C78.2683 140.937 75.115 143.052 71.6516 142.921L24.531 141.15C21.0677 141.02 18.0821 138.674 17.1357 135.34L15.8536 130.823L47.387 122.374C51.6548 121.23 54.1874 116.844 53.0439 112.576L47.3499 91.3256C46.2063 87.0579 41.8196 84.5252 37.5519 85.6688L5.47607 94.2635L4.25966 89.9781C3.31327 86.644 4.62139 83.0797 7.49985 81.1493L46.6626 54.8859Z" fill="#648FFF"/>
<circle cx="83" cy="32.0015" r="24" fill="black"/>
<circle cx="78.9851" cy="28.9863" r="23.9153" transform="rotate(-10.59 78.9851 28.9863)" fill="#F36E6E"/>
<rect x="72.7383" y="14.166" width="5.46635" height="21.8654" rx="2.73317" transform="rotate(-10.59 72.7383 14.166)" fill="white"/>
<rect x="77.2578" y="38.3457" width="5.46635" height="5.46635" rx="2.73317" transform="rotate(-10.59 77.2578 38.3457)" fill="white"/>
</g>
</svg>
