<svg width="40" height="40" viewBox="0 0 40 40" fill="none" xmlns="http://www.w3.org/2000/svg">
<rect x="2.5" y="16.5" width="35" height="7" stroke="black"/>
<path d="M35.9236 9.92161L32.9434 6.44189V9.92161H31.3008V2.11182H32.9434V5.61391L35.9236 2.11182H37.9065L34.5274 5.98314L38.0004 9.92161H35.9236Z" fill="black"/>
<path d="M28.0071 9.92161L26.2002 6.87825H25.4258V9.92161H23.7832V2.11182H26.8573C27.4909 2.11182 28.0306 2.21997 28.4765 2.43629C28.9223 2.64515 29.2548 2.93233 29.4738 3.29783C29.7006 3.65587 29.814 4.05867 29.814 4.50622C29.814 5.02091 29.6576 5.48711 29.3447 5.90482C29.0318 6.31508 28.5664 6.59853 27.9485 6.75517L29.9079 9.92161H28.0071ZM25.4258 5.70342H26.7986C27.2445 5.70342 27.5769 5.60273 27.7959 5.40133C28.015 5.19247 28.1245 4.90529 28.1245 4.53979C28.1245 4.18175 28.015 3.90576 27.7959 3.71182C27.5769 3.51042 27.2445 3.40972 26.7986 3.40972H25.4258V5.70342Z" fill="black"/>
<path d="M18.3723 10C17.6058 10 16.9018 9.82844 16.2604 9.48531C15.619 9.14219 15.1105 8.66853 14.7351 8.06434C14.3596 7.45268 14.1719 6.7627 14.1719 5.99441C14.1719 5.23357 14.3596 4.55105 14.7351 3.94685C15.1105 3.3352 15.619 2.85781 16.2604 2.51468C16.9018 2.17156 17.6058 2 18.3723 2C19.1467 2 19.8507 2.17156 20.4843 2.51468C21.1257 2.85781 21.6302 3.3352 21.9979 3.94685C22.3733 4.55105 22.5611 5.23357 22.5611 5.99441C22.5611 6.7627 22.3733 7.45268 21.9979 8.06434C21.6302 8.66853 21.1257 9.14219 20.4843 9.48531C19.8429 9.82844 19.1389 10 18.3723 10ZM18.3723 8.6014C18.8651 8.6014 19.2993 8.49697 19.6747 8.28811C20.0502 8.0718 20.3435 7.76597 20.5547 7.37063C20.7659 6.97529 20.8715 6.51655 20.8715 5.99441C20.8715 5.47226 20.7659 5.01725 20.5547 4.62937C20.3435 4.23403 20.0502 3.93193 19.6747 3.72308C19.2993 3.51422 18.8651 3.40979 18.3723 3.40979C17.8795 3.40979 17.4415 3.51422 17.0582 3.72308C16.6828 3.93193 16.3894 4.23403 16.1782 4.62937C15.967 5.01725 15.8614 5.47226 15.8614 5.99441C15.8614 6.51655 15.967 6.97529 16.1782 7.37063C16.3894 7.76597 16.6828 8.0718 17.0582 8.28811C17.4415 8.49697 17.8795 8.6014 18.3723 8.6014Z" fill="black"/>
<path d="M13.4985 2.11182L11.2105 9.92161H9.27455L7.7375 4.36077L6.13006 9.92161L4.20583 9.9328L2 2.11182H3.75997L5.20315 8.17615L6.86925 2.11182H8.69962L10.2719 8.14259L11.7268 2.11182H13.4985Z" fill="black"/>
<path d="M37.9993 30.1118V31.3761H36.0058V37.9215H34.5053V31.3761H32.5117V30.1118H37.9993Z" fill="black"/>
<path d="M26.9146 30.1118V34.9453C26.9146 35.4749 27.0468 35.8814 27.3111 36.1649C27.5755 36.4409 27.9471 36.5789 28.4258 36.5789C28.9117 36.5789 29.2868 36.4409 29.5512 36.1649C29.8155 35.8814 29.9477 35.4749 29.9477 34.9453V30.1118H31.459V34.9341C31.459 35.598 31.3196 36.1612 31.041 36.6236C30.7694 37.0786 30.4015 37.4217 29.937 37.653C29.4797 37.8842 28.9688 37.9998 28.4044 37.9998C27.847 37.9998 27.3397 37.8842 26.8824 37.653C26.4323 37.4217 26.075 37.0786 25.8106 36.6236C25.5462 36.1612 25.4141 35.598 25.4141 34.9341V30.1118H26.9146Z" fill="black"/>
<path d="M20.4913 37.9999C19.7911 37.9999 19.148 37.8283 18.5621 37.4852C17.9762 37.1421 17.5117 36.6684 17.1688 36.0643C16.8258 35.4526 16.6543 34.7626 16.6543 33.9944C16.6543 33.2335 16.8258 32.551 17.1688 31.9468C17.5117 31.3352 17.9762 30.8578 18.5621 30.5147C19.148 30.1716 19.7911 30 20.4913 30C21.1987 30 21.8418 30.1716 22.4205 30.5147C23.0064 30.8578 23.4673 31.3352 23.8031 31.9468C24.1461 32.551 24.3176 33.2335 24.3176 33.9944C24.3176 34.7626 24.1461 35.4526 23.8031 36.0643C23.4673 36.6684 23.0064 37.1421 22.4205 37.4852C21.8346 37.8283 21.1915 37.9999 20.4913 37.9999ZM20.4913 36.6013C20.9415 36.6013 21.338 36.4969 21.681 36.288C22.024 36.0717 22.2919 35.7659 22.4848 35.3706C22.6778 34.9752 22.7742 34.5165 22.7742 33.9944C22.7742 33.4722 22.6778 33.0172 22.4848 32.6293C22.2919 32.234 22.024 31.9319 21.681 31.7231C21.338 31.5142 20.9415 31.4098 20.4913 31.4098C20.0412 31.4098 19.641 31.5142 19.2909 31.7231C18.9479 31.9319 18.68 32.234 18.4871 32.6293C18.2941 33.0172 18.1977 33.4722 18.1977 33.9944C18.1977 34.5165 18.2941 34.9752 18.4871 35.3706C18.68 35.7659 18.9479 36.0717 19.2909 36.288C19.641 36.4969 20.0412 36.6013 20.4913 36.6013Z" fill="black"/>
<path d="M14.3771 33.916C14.7987 33.998 15.1452 34.2181 15.4167 34.5761C15.6883 34.9341 15.824 35.3444 15.824 35.8068C15.824 36.2246 15.724 36.5938 15.5239 36.9145C15.331 37.2278 15.0488 37.474 14.6772 37.653C14.3056 37.832 13.8662 37.9215 13.3589 37.9215H10.1328V30.1118H13.2196C13.7269 30.1118 14.1627 30.1976 14.5272 30.3692C14.8987 30.5407 15.1774 30.7794 15.3631 31.0852C15.5561 31.3911 15.6525 31.7379 15.6525 32.1258C15.6525 32.5808 15.5346 32.9612 15.2988 33.267C15.0702 33.5728 14.7629 33.7892 14.3771 33.916ZM11.6333 33.3342H13.0052C13.3625 33.3342 13.6376 33.2521 13.8305 33.088C14.0234 32.9164 14.1199 32.674 14.1199 32.3607C14.1199 32.0475 14.0234 31.805 13.8305 31.6335C13.6376 31.4619 13.3625 31.3761 13.0052 31.3761H11.6333V33.3342ZM13.1445 36.646C13.509 36.646 13.7912 36.5565 13.9913 36.3775C14.1985 36.1984 14.3021 35.9448 14.3021 35.6166C14.3021 35.281 14.1949 35.0199 13.9805 34.8334C13.7662 34.6395 13.4768 34.5425 13.1124 34.5425H11.6333V36.646H13.1445Z" fill="black"/>
<path d="M7.04813 36.4334H4.06856L3.57553 37.9215H2L4.69019 30.1006H6.43721L9.12741 37.9215H7.54116L7.04813 36.4334ZM6.64085 35.1802L5.55834 31.9131L4.47584 35.1802H6.64085Z" fill="black"/>
</svg>
