<svg width="40" height="40" viewBox="0 0 40 40" fill="none" xmlns="http://www.w3.org/2000/svg">
<circle cx="32" cy="30" r="5" fill="#E7F084"/>
<path fill-rule="evenodd" clip-rule="evenodd" d="M16.7959 10.0118C15.779 11.7741 15.1973 13.8191 15.1973 16V33.6C15.1973 34.9255 16.2718 36 17.5973 36L17.6232 35.9999H36.7713L36.7973 36C38.1228 36 39.1973 34.9255 39.1973 33.6V16C39.1973 9.37258 33.8247 4 27.1973 4C24.4957 4 22.0027 4.89273 19.9971 6.39927C17.9915 4.89273 15.4984 4 12.7969 4C6.16946 4 0.796875 9.37258 0.796875 16V33.6C0.796875 34.9255 1.87139 36 3.19688 36C4.52236 36 5.59688 34.9255 5.59688 33.6V16C5.59688 12.0235 8.82043 8.8 12.7969 8.8C14.2766 8.8 15.652 9.24635 16.7959 10.0118ZM34.3647 15.3105L19.9973 31.3242V16C19.9973 12.0235 23.2208 8.8 27.1973 8.8C30.9412 8.8 34.0176 11.6575 34.3647 15.3105ZM31.9977 31.1999C33.3231 31.1999 34.3977 30.1254 34.3977 28.7999C34.3977 27.4744 33.3231 26.3999 31.9977 26.3999C30.6722 26.3999 29.5977 27.4744 29.5977 28.7999C29.5977 30.1254 30.6722 31.1999 31.9977 31.1999Z" fill="black"/>
</svg>
