<svg width="32" height="32" viewBox="0 0 32 32" fill="none" xmlns="http://www.w3.org/2000/svg">
<mask id="path-1-outside-1_668_578" maskUnits="userSpaceOnUse" x="2" y="2" width="29" height="29" fill="black">
<rect fill="white" x="2" y="2" width="29" height="29"/>
<path fill-rule="evenodd" clip-rule="evenodd" d="M15 4C13.3431 4 12 5.34315 12 7V12L7 12C5.34315 12 4 13.3431 4 15V18C4 19.6569 5.34315 21 7 21H12V26C12 27.6569 13.3431 29 15 29H18C19.6569 29 21 27.6569 21 26V21H26C27.6569 21 29 19.6569 29 18V15C29 13.3431 27.6569 12 26 12L21 12V7C21 5.34315 19.6569 4 18 4H15Z"/>
</mask>
<path fill-rule="evenodd" clip-rule="evenodd" d="M15 4C13.3431 4 12 5.34315 12 7V12L7 12C5.34315 12 4 13.3431 4 15V18C4 19.6569 5.34315 21 7 21H12V26C12 27.6569 13.3431 29 15 29H18C19.6569 29 21 27.6569 21 26V21H26C27.6569 21 29 19.6569 29 18V15C29 13.3431 27.6569 12 26 12L21 12V7C21 5.34315 19.6569 4 18 4H15Z" fill="black"/>
<path d="M12 12V14L14 14V12H12ZM7 12L7 10H7V12ZM12 21H14V19H12V21ZM21 21V19H19V21H21ZM26 12V14V12ZM21 12H19V14H21V12ZM14 7C14 6.44772 14.4477 6 15 6V2C12.2386 2 10 4.23858 10 7H14ZM14 12V7H10V12H14ZM7 14H12V10L7 10L7 14ZM6 15C6 14.4477 6.44771 14 7 14V10C4.23858 10 2 12.2386 2 15H6ZM6 18V15H2V18H6ZM7 19C6.44772 19 6 18.5523 6 18H2C2 20.7614 4.23858 23 7 23V19ZM12 19H7V23H12V19ZM14 26V21H10V26H14ZM15 27C14.4477 27 14 26.5523 14 26H10C10 28.7614 12.2386 31 15 31V27ZM18 27H15V31H18V27ZM19 26C19 26.5523 18.5523 27 18 27V31C20.7614 31 23 28.7614 23 26H19ZM19 21V26H23V21H19ZM26 19H21V23H26V19ZM27 18C27 18.5523 26.5523 19 26 19V23C28.7614 23 31 20.7614 31 18H27ZM27 15V18H31V15H27ZM26 14C26.5523 14 27 14.4477 27 15H31C31 12.2386 28.7614 10 26 10V14ZM21 14L26 14V10L21 10V14ZM19 7V12H23V7H19ZM18 6C18.5523 6 19 6.44772 19 7H23C23 4.23858 20.7614 2 18 2V6ZM15 6H18V2H15V6Z" fill="black" mask="url(#path-1-outside-1_668_578)"/>
<mask id="path-3-outside-2_668_578" maskUnits="userSpaceOnUse" x="1" y="1" width="29" height="29" fill="black">
<rect fill="white" x="1" y="1" width="29" height="29"/>
<path fill-rule="evenodd" clip-rule="evenodd" d="M14 3C12.3431 3 11 4.34315 11 6V11L6 11C4.34315 11 3 12.3431 3 14V17C3 18.6569 4.34315 20 6 20H11V25C11 26.6569 12.3431 28 14 28H17C18.6569 28 20 26.6569 20 25V20H25C26.6569 20 28 18.6569 28 17V14C28 12.3431 26.6569 11 25 11L20 11V6C20 4.34315 18.6569 3 17 3H14Z"/>
</mask>
<path fill-rule="evenodd" clip-rule="evenodd" d="M14 3C12.3431 3 11 4.34315 11 6V11L6 11C4.34315 11 3 12.3431 3 14V17C3 18.6569 4.34315 20 6 20H11V25C11 26.6569 12.3431 28 14 28H17C18.6569 28 20 26.6569 20 25V20H25C26.6569 20 28 18.6569 28 17V14C28 12.3431 26.6569 11 25 11L20 11V6C20 4.34315 18.6569 3 17 3H14Z" fill="#FFDD76"/>
<path d="M11 11V13L13 13V11H11ZM6 11L6 9H6V11ZM11 20H13V18H11V20ZM20 20V18H18V20H20ZM25 11V13V11ZM20 11H18V13H20V11ZM13 6C13 5.44772 13.4477 5 14 5V1C11.2386 1 9 3.23858 9 6H13ZM13 11V6H9V11H13ZM6 13H11V9L6 9L6 13ZM5 14C5 13.4477 5.44771 13 6 13V9C3.23858 9 1 11.2386 1 14H5ZM5 17V14H1V17H5ZM6 18C5.44772 18 5 17.5523 5 17H1C1 19.7614 3.23858 22 6 22V18ZM11 18H6V22H11V18ZM13 25V20H9V25H13ZM14 26C13.4477 26 13 25.5523 13 25H9C9 27.7614 11.2386 30 14 30V26ZM17 26H14V30H17V26ZM18 25C18 25.5523 17.5523 26 17 26V30C19.7614 30 22 27.7614 22 25H18ZM18 20V25H22V20H18ZM25 18H20V22H25V18ZM26 17C26 17.5523 25.5523 18 25 18V22C27.7614 22 30 19.7614 30 17H26ZM26 14V17H30V14H26ZM25 13C25.5523 13 26 13.4477 26 14H30C30 11.2386 27.7614 9 25 9V13ZM20 13L25 13V9L20 9V13ZM18 6V11H22V6H18ZM17 5C17.5523 5 18 5.44772 18 6H22C22 3.23858 19.7614 1 17 1V5ZM14 5H17V1H14V5Z" fill="black" mask="url(#path-3-outside-2_668_578)"/>
</svg>
