<svg width="40" height="40" viewBox="0 0 40 40" fill="none" xmlns="http://www.w3.org/2000/svg">
<mask id="path-1-inside-1_1272_22198" fill="white">
<path fill-rule="evenodd" clip-rule="evenodd" d="M5.85885 5.85787C3.12518 8.59154 3.12518 13.0237 5.85885 15.7574L10.102 20.0005L5.85973 24.2427C3.12606 26.9764 3.12606 31.4086 5.85973 34.1422C8.5934 36.8759 13.0256 36.8759 15.7592 34.1422L20.0015 29.9L24.2436 34.1421C26.9773 36.8758 31.4094 36.8758 34.1431 34.1421C36.8768 31.4085 36.8768 26.9763 34.1431 24.2426L29.901 20.0005L34.144 15.7574C36.8777 13.0238 36.8777 8.59162 34.144 5.85795C31.4103 3.12428 26.9782 3.12428 24.2445 5.85795L20.0015 10.101L15.7583 5.85787C13.0247 3.1242 8.59252 3.1242 5.85885 5.85787Z"/>
</mask>
<path d="M5.85885 15.7574L5.15174 16.4645L5.15174 16.4645L5.85885 15.7574ZM5.85885 5.85787L5.15174 5.15076L5.85885 5.85787ZM10.102 20.0005L10.8091 20.7076L11.5162 20.0005L10.8091 19.2934L10.102 20.0005ZM5.85973 24.2427L6.56684 24.9498L6.56684 24.9498L5.85973 24.2427ZM5.85973 34.1422L5.15262 34.8493L5.15262 34.8493L5.85973 34.1422ZM15.7592 34.1422L16.4663 34.8493L16.4663 34.8493L15.7592 34.1422ZM20.0015 29.9L20.7086 29.1929L20.0015 28.4858L19.2944 29.1929L20.0015 29.9ZM24.2436 34.1421L23.5365 34.8492L23.5365 34.8492L24.2436 34.1421ZM34.1431 34.1421L34.8502 34.8492L34.8502 34.8492L34.1431 34.1421ZM34.1431 24.2426L33.436 24.9498L33.436 24.9498L34.1431 24.2426ZM29.901 20.0005L29.1939 19.2934L28.4867 20.0005L29.1939 20.7076L29.901 20.0005ZM34.144 15.7574L33.4369 15.0503L33.4369 15.0503L34.144 15.7574ZM34.144 5.85795L33.4369 6.56506L33.4369 6.56506L34.144 5.85795ZM24.2445 5.85795L24.9516 6.56506L24.9516 6.56506L24.2445 5.85795ZM20.0015 10.101L19.2944 10.8081L20.0015 11.5152L20.7086 10.8081L20.0015 10.101ZM15.7583 5.85787L15.0512 6.56498L15.0512 6.56498L15.7583 5.85787ZM6.56595 15.0503C4.22281 12.7071 4.22281 8.90812 6.56595 6.56498L5.15174 5.15076C2.02754 8.27496 2.02755 13.3403 5.15174 16.4645L6.56595 15.0503ZM10.8091 19.2934L6.56595 15.0503L5.15174 16.4645L9.39486 20.7076L10.8091 19.2934ZM6.56684 24.9498L10.8091 20.7076L9.39486 19.2934L5.15262 23.5356L6.56684 24.9498ZM6.56684 33.4351C4.22369 31.092 4.22369 27.293 6.56684 24.9498L5.15262 23.5356C2.02843 26.6598 2.02843 31.7251 5.15262 34.8493L6.56684 33.4351ZM15.0521 33.4351C12.709 35.7783 8.90998 35.7783 6.56684 33.4351L5.15262 34.8493C8.27682 37.9735 13.3421 37.9735 16.4663 34.8493L15.0521 33.4351ZM19.2944 29.1929L15.0521 33.4351L16.4663 34.8493L20.7086 30.6071L19.2944 29.1929ZM24.9507 33.435L20.7086 29.1929L19.2944 30.6071L23.5365 34.8492L24.9507 33.435ZM33.436 33.435C31.0929 35.7782 27.2939 35.7782 24.9507 33.435L23.5365 34.8492C26.6607 37.9734 31.726 37.9734 34.8502 34.8492L33.436 33.435ZM33.436 24.9498C35.7792 27.2929 35.7792 31.0919 33.436 33.435L34.8502 34.8492C37.9744 31.7251 37.9744 26.6597 34.8502 23.5355L33.436 24.9498ZM29.1939 20.7076L33.436 24.9498L34.8502 23.5355L30.6081 19.2934L29.1939 20.7076ZM33.4369 15.0503L29.1939 19.2934L30.6081 20.7076L34.8511 16.4646L33.4369 15.0503ZM33.4369 6.56506C35.78 8.9082 35.78 12.7072 33.4369 15.0503L34.8511 16.4646C37.9753 13.3404 37.9753 8.27504 34.8511 5.15084L33.4369 6.56506ZM24.9516 6.56506C27.2948 4.22191 31.0938 4.22191 33.4369 6.56506L34.8511 5.15084C31.7269 2.02665 26.6616 2.02665 23.5374 5.15084L24.9516 6.56506ZM20.7086 10.8081L24.9516 6.56506L23.5374 5.15084L19.2944 9.39389L20.7086 10.8081ZM15.0512 6.56498L19.2944 10.8081L20.7086 9.39389L16.4654 5.15076L15.0512 6.56498ZM6.56595 6.56498C8.9091 4.22183 12.7081 4.22183 15.0512 6.56498L16.4654 5.15076C13.3413 2.02657 8.27593 2.02657 5.15174 5.15076L6.56595 6.56498Z" fill="white" mask="url(#path-1-inside-1_1272_22198)"/>
</svg>
