<svg width="120" height="120" viewBox="0 0 120 120" fill="none" xmlns="http://www.w3.org/2000/svg">
<circle cx="60" cy="60" r="60" fill="#E7F084"/>
<path d="M75.7525 72.5377C75.596 71.2 76.6671 70.9711 77.2223 71.0238C78.0552 71.3712 78.3183 72.3094 79.3603 73.6065C80.1939 74.6441 80.0543 76.8628 79.8803 77.8424C80.4452 77.4305 81.5365 76.3316 81.3823 75.2315C81.1897 73.8563 79.375 72.1824 79.9919 71.0914C80.6088 70.0004 78.7844 67.526 77.9153 65.742C77.0463 63.958 77.3556 61.8684 76.8392 59.9052C76.3228 57.9419 75.4857 57.1267 73.8988 56.0429C72.3178 54.9631 71.9337 53.8331 71.5222 52.6226L71.5177 52.6092C71.1045 51.3936 69.6306 49.8223 66.8962 49.8269C64.1617 49.8316 64.5896 49.6232 62.3281 48.2565C60.0666 46.8899 59.0297 48.0065 56.9583 48.8366C54.887 49.6667 52.7208 47.1946 50.8646 48.0989C49.0084 49.0032 48.5592 50.9894 46.8476 51.8232C45.136 52.657 43.0034 52.458 40.6554 53.0723C38.3075 53.6867 37.7064 56.4479 35.855 57.1783C34.0035 57.9087 34.3713 59.7504 34.28 61.9203C34.1886 64.0901 31.8973 65.9073 29.9949 67.8035C28.0924 69.6997 28.4261 71.6551 30.0335 74.2353C31.6409 76.8154 30.3561 77.2549 31.1438 79.9585C31.9314 82.6621 33.5359 82.3279 35.1246 83.2318C36.7133 84.1358 35.9213 85.0511 36.7952 86.6612C37.6691 88.2713 38.9407 88.5243 40.1125 88.5725C41.2843 88.6206 41.59 89.7991 42.8146 91.4098C44.0392 93.0206 45.428 92.963 45.2262 92.1814C45.0244 91.3997 44.1068 90.2509 44.0187 88.6159C43.9306 86.9809 42.8508 84.4122 41.7732 82.2003C40.6957 79.9884 42.0998 78.156 42.789 77.0298C43.4782 75.9035 43.4286 73.4444 43.2274 72.312C43.0262 71.1796 45.0369 68.9546 47.3453 68.9785C49.6537 69.0024 49.9498 67.6203 51.4614 65.825C52.973 64.0296 54.9082 65.6448 55.9316 66.1231C56.9551 66.6014 58.8205 64.7978 60.3345 66.2676C61.8484 67.7374 63.3059 67.1169 64.6576 67.1669C66.0093 67.2168 66.8352 69.1113 67.6338 70.7506C68.4324 72.39 69.8278 71.9787 70.8726 73.5876C71.9174 75.1965 70.9982 75.6517 72.2819 77.9347C73.5656 80.2177 74.9001 79.314 75.0491 78.533C75.1981 77.752 75.4571 76.4774 75.0754 75.6939C74.6937 74.9104 75.9482 74.2098 75.7525 72.5377Z" fill="black" stroke="black" stroke-width="0.589492"/>
<path d="M46.5936 41.0839C37.5161 47.3645 36.3655 65.4688 37.4343 73.516C37.8522 78.7499 38.5064 83.3535 41.6194 90.3764C44.9755 97.9475 58.4498 104.31 65.1419 103.441C71.8341 102.572 76.5586 100.564 82.5217 91.2553C88.4847 81.9462 85.9398 71.0189 85.1886 61.5899C84.6092 54.3184 86.6668 42.5421 80.7138 37.8876C74.7607 33.233 57.9403 33.233 46.5936 41.0839Z" fill="#BA7458"/>
<path fill-rule="evenodd" clip-rule="evenodd" d="M72.6677 73.2585C72.2374 72.8254 71.6484 72.529 71.206 72.3654L71.3239 72.0469C71.7905 72.2195 72.4301 72.5375 72.9086 73.0191C73.392 73.5056 73.7199 74.1708 73.5176 75.0126C73.3288 75.7987 72.8081 76.2987 72.2621 76.6055C71.7187 76.9108 71.1396 77.0317 70.7995 77.0599L70.7715 76.7214C71.074 76.6964 71.6036 76.5859 72.0957 76.3094C72.5851 76.0344 73.0267 75.6022 73.1874 74.9332C73.3547 74.2368 73.0933 73.6867 72.6677 73.2585Z" fill="black"/>
<path d="M69.6488 77.7179L70.3813 77.3325C70.4671 77.2874 70.5678 77.2802 70.6591 77.3127L76.0691 79.2388C76.1757 79.2767 76.2571 79.3643 76.2871 79.4734L77.1942 82.7684C77.2749 83.0617 76.9658 83.3094 76.6971 83.1666L71.2011 80.2452C71.1204 80.2024 71.0261 80.193 70.9387 80.2193L66.9561 81.414C66.9061 81.429 66.8542 81.4328 66.8027 81.4241C65.4476 81.1953 62.8682 80.468 62.1157 80.468C61.4126 80.468 56.4725 82.3723 53.4198 83.6746C53.1334 83.7968 52.8461 83.5125 52.9737 83.2285C53.6598 81.7012 54.7785 79.5681 55.4235 79.2993C56.1805 78.9839 61.4881 77.6696 64.1872 77.2768C64.2574 77.2666 64.327 77.2789 64.3903 77.3111L65.2537 77.7496C66.6372 78.4522 68.2755 78.4404 69.6488 77.7179Z" fill="#2D1A13"/>
<path d="M62.693 80.4077C60.5895 80.1485 58.1302 81.1612 56.4656 82.0988C55.7558 82.4987 55.7004 83.4581 56.2885 84.022C56.4953 84.2204 56.7 84.4204 56.8798 84.6028C57.599 85.3319 60.3957 89.6069 65.4798 89.6469C70.5638 89.6868 72.7013 87.0599 73.9199 84.9523C74.4291 84.0717 74.8387 83.3562 75.14 82.8266C75.4562 82.2708 75.3095 81.5647 74.752 81.2514C73.4274 80.5071 71.4095 79.7726 69.7348 80.4077C67.0479 81.4265 66.1789 80.8372 62.693 80.4077Z" fill="#DF653E"/>
<path fill-rule="evenodd" clip-rule="evenodd" d="M68.6198 64.298C68.8492 63.4344 69.2363 62.7248 69.5284 62.3301L69.8014 62.5321C69.5342 62.8932 69.1662 63.564 68.9481 64.3852C68.7302 65.2054 68.6648 66.1644 68.9867 67.1109C69.1942 67.7211 69.4628 68.3658 69.7466 69.0383C69.7687 69.0905 69.7908 69.143 69.813 69.1956C70.0759 69.8178 70.348 70.462 70.5896 71.1155C71.1127 72.531 71.5012 74.0122 71.3419 75.4546C71.152 77.1748 69.5094 78.6422 67.5674 78.6422C66.2809 78.6422 65.5636 78.3075 64.9179 77.963C64.8678 77.9362 64.8182 77.9094 64.7689 77.8829C64.1941 77.5731 63.6624 77.2864 62.763 77.2335C61.71 77.1716 60.8055 76.7678 60.2735 76.1067C59.735 75.4377 59.5985 74.5302 60.0404 73.52C60.7435 71.9129 62.1392 71.5005 62.773 71.5005V71.8401C62.2481 71.8401 60.9909 72.1948 60.3515 73.6561C59.9545 74.5638 60.0877 75.3343 60.538 75.8938C60.9948 76.4613 61.7983 76.8366 62.7829 76.8945C63.7592 76.9519 64.3498 77.2707 64.9272 77.5824C64.9774 77.6095 65.0276 77.6365 65.0778 77.6633C65.6957 77.993 66.3567 78.3026 67.5674 78.3026C69.3487 78.3026 70.8348 76.9533 71.0044 75.4173C71.1548 74.0555 70.7892 72.6351 70.271 71.2332C70.0323 70.5874 69.7631 69.9501 69.4997 69.3266C69.4777 69.2744 69.4557 69.2223 69.4337 69.1703C69.1504 68.499 68.8771 67.8436 68.6652 67.2202C68.3158 66.193 68.3902 65.1627 68.6198 64.298Z" fill="black"/>
<path d="M62.1929 83.0484C60.4429 82.5849 57.3985 82.7421 56.1699 83.0484C56.4463 82.988 57.5403 83.2431 58.7469 83.388C60.2552 83.5691 62.1929 85.6256 64.7599 86.0149C68.975 86.6542 70.0038 85.6753 71.7018 84.267C72.5885 83.5315 74.0491 82.3059 74.8581 81.9297C74.0657 82.1561 71.514 82.8446 70.0038 83.388C68.116 84.0672 64.3803 83.6277 62.1929 83.0484Z" fill="white"/>
<path d="M76.4468 63.1344C74.1527 62.8334 72.1885 63.8923 71.1444 64.7355C70.8716 64.9559 70.9272 65.3567 71.2515 65.4901C72.128 65.8508 73.7143 66.2985 75.9174 66.4205C77.7787 66.5236 79.4147 66.1707 80.342 65.8712C80.6414 65.7745 80.7642 65.4358 80.5671 65.1906C79.9653 64.442 78.6549 63.4241 76.4468 63.1344Z" fill="white"/>
<path d="M55.7817 62.5367C53.4877 62.2357 51.5234 63.2946 50.4794 64.1379C50.2065 64.3582 50.2621 64.759 50.5865 64.8925C51.4629 65.2531 53.0493 65.7009 55.2524 65.8229C57.1137 65.9259 58.7496 65.573 59.6769 65.2736C59.9763 65.1769 60.0992 64.8382 59.9021 64.5929C59.3002 63.8443 57.9898 62.8264 55.7817 62.5367Z" fill="white"/>
<path d="M58.6529 56.5699C60.6157 57.1083 61.6201 57.9393 62.0248 58.583C62.3037 59.0266 62.3879 59.6657 62.0731 60.0846C61.6363 60.666 60.3702 60.4591 58.5429 59.3271C56.403 58.0012 52.0906 57.9034 48.9648 58.4472C48.6577 58.5007 48.465 58.1389 48.7091 57.9451C51.8022 55.489 56.3721 55.6867 58.6529 56.5699Z" fill="black"/>
<path d="M88.6845 63.6574C86.0423 58.8984 81.4553 64.0879 79.492 67.2776C78.9321 71.0455 78.542 79.1057 81.4614 81.2026C85.1106 83.8238 87.2468 80.5256 87.4774 78.304C87.6618 76.5267 88.323 74.6302 88.6305 73.9041C89.7494 72.4714 91.3266 68.4163 88.6845 63.6574Z" fill="#BA7458"/>
<path d="M29.2827 64.0211C31.2324 58.939 36.5009 63.4351 38.8915 66.3184C39.9735 69.9708 41.4884 77.8969 38.8915 80.382C35.6453 83.4884 33.0683 80.5218 32.5289 78.3544C32.0974 76.6204 31.1771 74.8351 30.7709 74.1593C29.4625 72.8974 27.333 69.1032 29.2827 64.0211Z" fill="#BA7458"/>
<path d="M50.0724 81.0354L40.9685 69.1689C40.9029 69.0834 40.8012 69.0332 40.6934 69.0332H39.1332C38.954 69.0332 38.8044 69.1682 38.7883 69.3467C38.5491 72.0064 38.1361 77.2617 38.1976 79.3112C38.2775 81.9781 38.5072 84.4153 42.4326 92.1063C45.5591 98.232 55.1624 101.902 59.6333 102.989C59.6737 102.999 59.7136 103.001 59.7548 102.996L63.6097 102.522C63.8633 102.49 64.0593 102.743 64.0859 102.997C64.187 103.959 65.7088 104.612 71.3788 101.905C79.7691 97.8995 83.5347 89.8289 84.953 85.9834C85.9821 83.1932 86.9959 75.1141 87.4861 70.3762C87.5231 70.0195 87.0619 69.8525 86.8601 70.1489L79.4413 81.0424C79.4202 81.0733 79.4043 81.1075 79.3941 81.1436L75.9316 93.4506C75.9197 93.4929 75.8998 93.5326 75.8731 93.5675L74.8888 94.8525C74.8534 94.8988 74.8069 94.9353 74.7536 94.9589L62.2147 100.499C62.1058 100.547 61.9798 100.536 61.881 100.47L54.0958 95.2345C54.027 95.1882 53.977 95.1187 53.955 95.0388L50.1316 81.1544C50.1198 81.1113 50.0997 81.0709 50.0724 81.0354Z" fill="#744836"/>
<path d="M63.6721 96.9843C59.7092 96.9843 55.4894 94.2825 53.8748 92.9316C51.8774 93.9928 57.8977 106.668 64.7308 106.512C71.5638 106.356 77.9038 91.4276 75.2672 93.5416C72.6306 95.6557 68.6257 96.9843 63.6721 96.9843Z" fill="#2D1A13"/>
<path d="M31.2747 68.1631C31.027 65.3024 33.915 65.5994 35.3899 66.1055C36.8383 66.8646 37.2178 67.3241 35.3899 68.1631C33.5621 69.0021 33.642 70.4404 34.6308 71.1296C35.6197 71.8188 36.5286 74.1761 35.3899 75.5445C34.2513 76.9129 31.5844 71.7389 31.2747 68.1631Z" fill="#99563C"/>
<path d="M73.6257 57.7691C71.6649 58.3077 70.6619 59.1392 70.258 59.7831C69.98 60.2264 69.8962 60.864 70.2097 61.283C70.6454 61.8654 71.91 61.6589 73.7355 60.5263C75.8723 59.2006 80.1783 59.1027 83.2996 59.6463C83.6066 59.6998 83.7996 59.3382 83.5557 59.1443C80.4668 56.6882 75.9034 56.8859 73.6257 57.7691Z" fill="black"/>
<path d="M32.5993 64.1822C31.9361 62.2884 30.3519 62.6806 29.6428 63.1134C28.7538 64.1222 29.0135 65.5506 28.4641 67.9677C28.0246 69.9015 29.6594 72.7821 30.5317 73.9807C29.5062 73.7976 27.3274 73.0378 26.816 71.4637C26.1768 69.496 27.5152 66.07 25.977 65.0112C24.4388 63.9524 25.2679 59.4477 25.2679 56.4911C25.2679 53.5346 23.4899 50.9376 22.9006 47.9711C22.3113 45.0045 22.9006 43.3664 24.319 40.8793C25.7321 38.4014 25.5092 36.6373 25.2705 34.7474L25.2679 34.7265C25.0281 32.8287 25.977 29.7623 29.6428 27.9844C33.3085 26.2065 32.5993 26.2065 34.7368 22.9003C36.8743 19.5942 38.9918 20.4132 42.308 20.1735C45.6241 19.9338 46.9126 15.2093 49.989 15.2093C53.0654 15.2093 54.9632 17.5765 57.7999 17.5765C60.6366 17.5765 63.3634 15.9185 66.9093 15.2093C70.4551 14.5001 73.0621 17.8063 76.0186 17.5765C78.9752 17.3468 79.6844 20.0536 81.2226 22.9003C82.7608 25.747 87.0158 26.6859 90.8014 27.9844C94.587 29.2829 95.416 32.1196 94.9465 36.6243C94.4771 41.129 96.4848 40.8793 97.1939 45.0145C97.9031 49.1497 95.5359 49.749 93.9977 51.9964C92.4594 54.2437 94.1175 54.9529 93.9977 57.6797C93.8778 60.4066 92.3396 61.5752 90.8014 62.4042C89.2632 63.2333 89.6228 65.0112 89.0334 67.9677C88.4441 70.9243 86.5463 71.7533 86.3066 70.5747C86.0669 69.3961 86.5463 67.2586 85.5975 65.0112C84.6486 62.7638 84.4188 58.6186 84.4188 54.9529C84.4188 51.2872 81.3424 49.749 79.6844 48.6902C78.0263 47.6315 76.4881 44.3053 76.0186 42.6573C75.5492 41.0092 71.404 39.3411 68.3276 40.8793C65.2512 42.4175 63.9527 40.7595 60.7564 39.3411C57.5602 37.9228 56.022 41.3488 54.9632 42.6573C53.9044 43.9657 50.2287 42.7671 49.16 45.7237C48.0912 48.6802 45.734 48.8001 43.956 49.749C42.1781 50.6979 42.308 53.7743 42.308 56.4911C42.308 59.208 40.1705 59.5675 39.8209 62.4042C39.4713 65.2409 40.9995 65.2509 40.7698 69.1464C40.54 73.0418 38.1628 72.7022 37.4536 71.7533C36.7445 70.8044 35.5658 69.2662 35.5658 67.9677C35.5658 66.6693 33.4283 66.5494 32.5993 64.1822Z" fill="black" stroke="black" stroke-width="0.589492"/>
<mask id="mask0_840_838" style="mask-type:alpha" maskUnits="userSpaceOnUse" x="50" y="62" width="10" height="4">
<path d="M55.7817 62.5387C53.4877 62.2377 51.5234 63.2966 50.4794 64.1398C50.2065 64.3602 50.2621 64.761 50.5865 64.8944C51.4629 65.2551 53.0493 65.7028 55.2524 65.8248C57.1137 65.9279 58.7496 65.575 59.6769 65.2755C59.9763 65.1788 60.0992 64.8401 59.9021 64.5949C59.3002 63.8463 57.9898 62.8283 55.7817 62.5387Z" fill="white"/>
</mask>
<g mask="url(#mask0_840_838)">
<circle cx="55.5905" cy="64.3854" r="2.6569" fill="black"/>
<circle cx="56.0235" cy="64.6427" r="0.529382" fill="#E7E2E2"/>
</g>
<mask id="mask1_840_838" style="mask-type:alpha" maskUnits="userSpaceOnUse" x="70" y="63" width="11" height="4">
<path d="M76.4478 63.1305C74.1537 62.8295 72.1894 63.8884 71.1454 64.7316C70.8725 64.952 70.9281 65.3528 71.2525 65.4862C72.1289 65.8469 73.7153 66.2946 75.9184 66.4166C77.7797 66.5197 79.4157 66.1667 80.343 65.8673C80.6424 65.7706 80.7652 65.4319 80.5681 65.1867C79.9663 64.4381 78.6558 63.4201 76.4478 63.1305Z" fill="white"/>
</mask>
<g mask="url(#mask1_840_838)">
<circle cx="75.7702" cy="64.7546" r="2.6569" fill="black"/>
<circle cx="76.5811" cy="65.1739" r="0.529382" fill="#E7E2E2"/>
</g>
<path d="M65.6415 90.609C63.9795 90.6649 61.8859 89.8266 61.0469 89.4004C61.8859 90.4858 63.9795 92.6126 65.6415 92.4368C67.3036 92.2611 69.3971 90.3393 70.2362 89.4004C69.3971 89.7799 67.3036 90.553 65.6415 90.609Z" fill="#4A2E23"/>
<path d="M65.4658 21.1207C68.0556 20.1983 73.6388 18.9071 75.2537 21.1207C77.2724 23.8876 78.1249 25.7939 80.0391 26.2202C81.9532 26.6465 86.7386 28.03 86.7386 30.2661C86.7386 32.5021 91.3149 31.4324 91.3149 34.7302C91.3149 36.8292 91.6271 38.5311 91.879 39.4793C91.9485 39.6942 92.0075 39.8885 92.0548 40.0549C92.0044 39.9168 91.9437 39.7229 91.879 39.4793C91.4287 38.0876 90.5364 35.8339 89.5053 34.7302C88.0174 33.1376 84.5108 33.4513 84.2937 31.3278C84.0765 29.2043 81.7441 28.9872 80.0391 28.3517C78.3341 27.7163 75.8891 26.0111 74.4012 23.5659C73.2109 21.6097 67.9483 21.1207 65.4658 21.1207Z" fill="#FF5959"/>
<path d="M77.6168 52.2036C75.8788 51.273 74.3135 45.7729 73.7481 43.1391C73.7811 39.3464 77.0215 43.1942 78.293 45.8296C79.5646 48.4651 83.9834 50.6707 83.3681 52.0836C82.7527 53.4965 79.7892 53.3668 77.6168 52.2036Z" fill="#CF8364"/>
<ellipse cx="68.3702" cy="74.6483" rx="2.58698" ry="3.14633" fill="#CF8364"/>
</svg>
